# xmcd
#
# Track frame offsets:
#	150
#	16047
#	35616
#	52767
#	68559
#	84100
#	105673
#	117323
#	140007
#	158984
#	175677
#	189944
#
# Disc length: 2831 seconds
#
# Revision: 0
# Processed by: cddbd v1.5.2PL0 Copyright (c) Steve Scherf et al.
# Submitted via: dBpowerAMP V4.0
#
DISCID=8a0b0d0c
DTITLE=Chillout Experience - Bossa n' Marley
DYEAR=2008
DGENRE=Blues
TTITLE0=Redemption Song
TTITLE1=No Woman No Cry
TTITLE2=Buffalo Soldier
TTITLE3=I Shot The Sheriff
TTITLE4=Stir It Up
TTITLE5=Sun Is Shining
TTITLE6=Positive Vibration
TTITLE7=Is This Love
TTITLE8=Get Up Stand Up
TTITLE9=One Love (Caipora Mix)
TTITLE10=Could You Be Loved
TTITLE11=Waiting In Vain
EXTD=Cacá
EXTT0=
EXTT1=
EXTT2=
EXTT3=
EXTT4=
EXTT5=
EXTT6=
EXTT7=
EXTT8=
EXTT9=
EXTT10=
EXTT11=
PLAYORDER=
